<?xml version="1.0" encoding="us-ascii" standalone="no"?><svg xmlns="http://www.w3.org/2000/svg" xmlns:xlink="http://www.w3.org/1999/xlink" contentStyleType="text/css" height="447px" preserveAspectRatio="none" style="width:2266px;height:447px;background:#FFFFFF;" version="1.1" viewBox="0 0 2266 447" width="2266px" zoomAndPan="magnify"><defs/><g><!--class Life--><g id="elem_Life"><rect codeLine="8" fill="#F1F1F1" height="194.6719" id="Life" rx="2.5" ry="2.5" style="stroke:#181818;stroke-width:0.5;" width="1177" x="7" y="15"/><ellipse cx="550.75" cy="31" fill="#ADD1B2" rx="11" ry="11" style="stroke:#181818;stroke-width:1.0;"/><path d="M553.0938,26.6719 C552.1563,26.2344 551.5625,26.0938 550.6875,26.0938 C548.0625,26.0938 546.0625,28.1719 546.0625,30.8906 L546.0625,32.0156 C546.0625,34.5938 548.1719,36.4844 551.0625,36.4844 C552.2813,36.4844 553.4375,36.1875 554.1875,35.6406 C554.7656,35.2344 555.0938,34.7813 555.0938,34.3906 C555.0938,33.9375 554.7031,33.5469 554.2344,33.5469 C554.0156,33.5469 553.8125,33.625 553.625,33.8125 C553.1719,34.2969 553.1719,34.2969 552.9844,34.3906 C552.5625,34.6563 551.875,34.7813 551.1094,34.7813 C549.0625,34.7813 547.7656,33.6875 547.7656,31.9844 L547.7656,30.8906 C547.7656,29.1094 549.0156,27.7969 550.75,27.7969 C551.3281,27.7969 551.9375,27.9531 552.4063,28.2031 C552.8906,28.4844 553.0625,28.7031 553.1563,29.1094 C553.2188,29.5156 553.25,29.6406 553.3906,29.7656 C553.5313,29.9063 553.7656,30.0156 553.9844,30.0156 C554.25,30.0156 554.5156,29.875 554.6875,29.6563 C554.7969,29.5 554.8281,29.3125 554.8281,28.8906 L554.8281,27.4688 C554.8281,27.0313 554.8125,26.9063 554.7188,26.75 C554.5625,26.4844 554.2813,26.3438 553.9844,26.3438 C553.6875,26.3438 553.4844,26.4375 553.2656,26.75 L553.0938,26.6719 Z " fill="#000000"/><text fill="#000000" font-family="sans-serif" font-size="14" lengthAdjust="spacing" textLength="27" x="571.25" y="35.8467">Life</text><rect fill="#FFFFFF" height="15.9688" style="stroke:#181818;stroke-width:1.0;stroke-dasharray:2.0,2.0;" width="52" x="1135" y="12"/><text fill="#000000" font-family="sans-serif" font-size="12" font-style="italic" lengthAdjust="spacing" textLength="50" x="1136" y="24.1387">CellType</text><line style="stroke:#181818;stroke-width:0.5;" x1="8" x2="1183" y1="47" y2="47"/><rect fill="none" height="6" style="stroke:#C82930;stroke-width:1.0;" width="6" x="15" y="57.6484"/><text fill="#000000" font-family="sans-serif" font-size="14" lengthAdjust="spacing" textLength="240" x="27" y="63.9951">vector&lt;vector&lt;CellType&gt;&gt; _grid</text><rect fill="none" height="6" style="stroke:#C82930;stroke-width:1.0;" width="6" x="15" y="73.9453"/><text fill="#000000" font-family="sans-serif" font-size="14" lengthAdjust="spacing" textLength="345" x="27" y="80.292">vector&lt;vector&lt;int&gt;&gt; cardinal_neighbor_counts</text><rect fill="none" height="6" style="stroke:#C82930;stroke-width:1.0;" width="6" x="15" y="90.2422"/><text fill="#000000" font-family="sans-serif" font-size="14" lengthAdjust="spacing" textLength="349" x="27" y="96.5889">vector&lt;vector&lt;int&gt;&gt; diagonal_neighbor_counts</text><rect fill="none" height="6" style="stroke:#C82930;stroke-width:1.0;" width="6" x="15" y="106.5391"/><text fill="#000000" font-family="sans-serif" font-size="14" lengthAdjust="spacing" textLength="102" x="27" y="112.8857">int population</text><line style="stroke:#181818;stroke-width:0.5;" x1="8" x2="1183" y1="120.1875" y2="120.1875"/><rect fill="#F24D5C" height="6" style="stroke:#C82930;stroke-width:1.0;" width="6" x="15" y="130.8359"/><text fill="#000000" font-family="sans-serif" font-size="14" lengthAdjust="spacing" textLength="1151" x="27" y="137.1826">void update_neighbors(pair&lt;int, int&gt; coords, int update_amt, vector&lt;vector&lt;int&gt;&gt;&amp; new_cardinal_neighbors, vector&lt;vector&lt;int&gt;&gt;&amp; new_diagonal_neighbors)</text><rect fill="#F24D5C" height="6" style="stroke:#C82930;stroke-width:1.0;" width="6" x="15" y="147.1328"/><text fill="#000000" font-family="sans-serif" font-size="14" lengthAdjust="spacing" textLength="437" x="27" y="153.4795">bool is_duplicate(vector&lt;pair&lt;int, int&gt;&gt; live_cells, int index)</text><ellipse cx="18" cy="166.4297" fill="#84BE84" rx="3" ry="3" style="stroke:#038048;stroke-width:1.0;"/><text fill="#000000" font-family="sans-serif" font-size="14" lengthAdjust="spacing" textLength="354" x="27" y="169.7764">Life (int r, int c, vector&lt;pair&lt;int, int&gt;&gt; live_cells)</text><ellipse cx="18" cy="182.7266" fill="#84BE84" rx="3" ry="3" style="stroke:#038048;stroke-width:1.0;"/><text fill="#000000" font-family="sans-serif" font-size="14" lengthAdjust="spacing" textLength="110" x="27" y="186.0732">void do_round()</text><ellipse cx="18" cy="199.0234" fill="#84BE84" rx="3" ry="3" style="stroke:#038048;stroke-width:1.0;"/><text fill="#000000" font-family="sans-serif" font-size="14" lengthAdjust="spacing" textLength="180" x="27" y="202.3701">void print(int curr_round)</text></g><!--class Cell--><g id="elem_Cell"><rect codeLine="20" fill="#F1F1F1" height="210.9688" id="Cell" rx="2.5" ry="2.5" style="stroke:#181818;stroke-width:0.5;" width="471" x="1219" y="7"/><ellipse cx="1436.75" cy="23" fill="#ADD1B2" rx="11" ry="11" style="stroke:#181818;stroke-width:1.0;"/><path d="M1439.0938,18.6719 C1438.1563,18.2344 1437.5625,18.0938 1436.6875,18.0938 C1434.0625,18.0938 1432.0625,20.1719 1432.0625,22.8906 L1432.0625,24.0156 C1432.0625,26.5938 1434.1719,28.4844 1437.0625,28.4844 C1438.2813,28.4844 1439.4375,28.1875 1440.1875,27.6406 C1440.7656,27.2344 1441.0938,26.7813 1441.0938,26.3906 C1441.0938,25.9375 1440.7031,25.5469 1440.2344,25.5469 C1440.0156,25.5469 1439.8125,25.625 1439.625,25.8125 C1439.1719,26.2969 1439.1719,26.2969 1438.9844,26.3906 C1438.5625,26.6563 1437.875,26.7813 1437.1094,26.7813 C1435.0625,26.7813 1433.7656,25.6875 1433.7656,23.9844 L1433.7656,22.8906 C1433.7656,21.1094 1435.0156,19.7969 1436.75,19.7969 C1437.3281,19.7969 1437.9375,19.9531 1438.4063,20.2031 C1438.8906,20.4844 1439.0625,20.7031 1439.1563,21.1094 C1439.2188,21.5156 1439.25,21.6406 1439.3906,21.7656 C1439.5313,21.9063 1439.7656,22.0156 1439.9844,22.0156 C1440.25,22.0156 1440.5156,21.875 1440.6875,21.6563 C1440.7969,21.5 1440.8281,21.3125 1440.8281,20.8906 L1440.8281,19.4688 C1440.8281,19.0313 1440.8125,18.9063 1440.7188,18.75 C1440.5625,18.4844 1440.2813,18.3438 1439.9844,18.3438 C1439.6875,18.3438 1439.4844,18.4375 1439.2656,18.75 L1439.0938,18.6719 Z " fill="#000000"/><text fill="#000000" font-family="sans-serif" font-size="14" lengthAdjust="spacing" textLength="27" x="1457.25" y="27.8467">Cell</text><line style="stroke:#181818;stroke-width:0.5;" x1="1220" x2="1689" y1="39" y2="39"/><rect fill="none" height="6" style="stroke:#C82930;stroke-width:1.0;" width="6" x="1227" y="49.6484"/><text fill="#000000" font-family="sans-serif" font-size="14" lengthAdjust="spacing" textLength="118" x="1239" y="55.9951">AbstractCell* _p</text><line style="stroke:#181818;stroke-width:0.5;" x1="1220" x2="1689" y1="63.2969" y2="63.2969"/><text fill="#000000" font-family="sans-serif" font-size="14" lengthAdjust="spacing" textLength="445" x="1239" y="80.292">&#171;friend&#187; ostream&amp; operator&lt;&lt;(ostream&amp; lhs, const Cell&amp; rhs)</text><ellipse cx="1230" cy="93.2422" fill="#84BE84" rx="3" ry="3" style="stroke:#038048;stroke-width:1.0;"/><text fill="#000000" font-family="sans-serif" font-size="14" lengthAdjust="spacing" textLength="37" x="1239" y="96.5889">Cell()</text><ellipse cx="1230" cy="109.5391" fill="#84BE84" rx="3" ry="3" style="stroke:#038048;stroke-width:1.0;"/><text fill="#000000" font-family="sans-serif" font-size="14" lengthAdjust="spacing" textLength="106" x="1239" y="112.8857">Cell(bool alive)</text><ellipse cx="1230" cy="125.8359" fill="#84BE84" rx="3" ry="3" style="stroke:#038048;stroke-width:1.0;"/><text fill="#000000" font-family="sans-serif" font-size="14" lengthAdjust="spacing" textLength="145" x="1239" y="129.1826">Cell(const Cell&amp; rhs)</text><ellipse cx="1230" cy="142.1328" fill="#84BE84" rx="3" ry="3" style="stroke:#038048;stroke-width:1.0;"/><text fill="#000000" font-family="sans-serif" font-size="14" lengthAdjust="spacing" textLength="191" x="1239" y="145.4795">Cell&amp; operator=(Cell&amp; rhs)</text><ellipse cx="1230" cy="158.4297" fill="#84BE84" rx="3" ry="3" style="stroke:#038048;stroke-width:1.0;"/><text fill="#000000" font-family="sans-serif" font-size="14" lengthAdjust="spacing" textLength="407" x="1239" y="161.7764">int update (int cardinalNeighbors, int diagonalNeighbors)</text><ellipse cx="1230" cy="174.7266" fill="#84BE84" rx="3" ry="3" style="stroke:#038048;stroke-width:1.0;"/><text fill="#000000" font-family="sans-serif" font-size="14" lengthAdjust="spacing" textLength="101" x="1239" y="178.0732">void mutate ()</text><ellipse cx="1230" cy="191.0234" fill="#84BE84" rx="3" ry="3" style="stroke:#038048;stroke-width:1.0;"/><text fill="#000000" font-family="sans-serif" font-size="14" lengthAdjust="spacing" textLength="165" x="1239" y="194.3701">void clone(Cell&amp; other)</text><ellipse cx="1230" cy="207.3203" fill="#84BE84" rx="3" ry="3" style="stroke:#038048;stroke-width:1.0;"/><text fill="#000000" font-family="sans-serif" font-size="14" lengthAdjust="spacing" textLength="48" x="1239" y="210.667">~Cell()</text></g><!--class ConwayCell--><g id="elem_ConwayCell"><rect codeLine="44" fill="#F1F1F1" height="145.7813" id="ConwayCell" rx="2.5" ry="2.5" style="stroke:#181818;stroke-width:0.5;" width="429" x="614" y="286"/><ellipse cx="783.25" cy="302" fill="#ADD1B2" rx="11" ry="11" style="stroke:#181818;stroke-width:1.0;"/><path d="M785.5938,297.6719 C784.6563,297.2344 784.0625,297.0938 783.1875,297.0938 C780.5625,297.0938 778.5625,299.1719 778.5625,301.8906 L778.5625,303.0156 C778.5625,305.5938 780.6719,307.4844 783.5625,307.4844 C784.7813,307.4844 785.9375,307.1875 786.6875,306.6406 C787.2656,306.2344 787.5938,305.7813 787.5938,305.3906 C787.5938,304.9375 787.2031,304.5469 786.7344,304.5469 C786.5156,304.5469 786.3125,304.625 786.125,304.8125 C785.6719,305.2969 785.6719,305.2969 785.4844,305.3906 C785.0625,305.6563 784.375,305.7813 783.6094,305.7813 C781.5625,305.7813 780.2656,304.6875 780.2656,302.9844 L780.2656,301.8906 C780.2656,300.1094 781.5156,298.7969 783.25,298.7969 C783.8281,298.7969 784.4375,298.9531 784.9063,299.2031 C785.3906,299.4844 785.5625,299.7031 785.6563,300.1094 C785.7188,300.5156 785.75,300.6406 785.8906,300.7656 C786.0313,300.9063 786.2656,301.0156 786.4844,301.0156 C786.75,301.0156 787.0156,300.875 787.1875,300.6563 C787.2969,300.5 787.3281,300.3125 787.3281,299.8906 L787.3281,298.4688 C787.3281,298.0313 787.3125,297.9063 787.2188,297.75 C787.0625,297.4844 786.7813,297.3438 786.4844,297.3438 C786.1875,297.3438 785.9844,297.4375 785.7656,297.75 L785.5938,297.6719 Z " fill="#000000"/><text fill="#000000" font-family="sans-serif" font-size="14" lengthAdjust="spacing" textLength="82" x="803.75" y="306.8467">ConwayCell</text><line style="stroke:#181818;stroke-width:0.5;" x1="615" x2="1042" y1="318" y2="318"/><line style="stroke:#181818;stroke-width:0.5;" x1="615" x2="1042" y1="326" y2="326"/><polygon fill="#FFFF44" points="625,334.6484,629,338.6484,625,342.6484,621,338.6484" style="stroke:#B38D22;stroke-width:1.0;"/><text fill="#000000" font-family="sans-serif" font-size="14" lengthAdjust="spacing" textLength="269" x="634" y="342.9951">ostream&amp; write (ostream&amp; out) const</text><ellipse cx="625" cy="355.9453" fill="#84BE84" rx="3" ry="3" style="stroke:#038048;stroke-width:1.0;"/><text fill="#000000" font-family="sans-serif" font-size="14" lengthAdjust="spacing" textLength="92" x="634" y="359.292">ConwayCell()</text><ellipse cx="625" cy="372.2422" fill="#84BE84" rx="3" ry="3" style="stroke:#038048;stroke-width:1.0;"/><text fill="#000000" font-family="sans-serif" font-size="14" lengthAdjust="spacing" textLength="161" x="634" y="375.5889">ConwayCell(bool alive)</text><ellipse cx="625" cy="388.5391" fill="#84BE84" rx="3" ry="3" style="stroke:#038048;stroke-width:1.0;"/><text fill="#000000" font-family="sans-serif" font-size="14" lengthAdjust="spacing" textLength="403" x="634" y="391.8857">int update(int cardinalNeighbors, int diagonalNeighbors)</text><ellipse cx="625" cy="404.8359" fill="#84BE84" rx="3" ry="3" style="stroke:#038048;stroke-width:1.0;"/><text fill="#000000" font-family="sans-serif" font-size="14" lengthAdjust="spacing" textLength="142" x="634" y="408.1826">ConwayCell* clone()</text><ellipse cx="625" cy="421.1328" fill="#84BE84" rx="3" ry="3" style="stroke:#038048;stroke-width:1.0;"/><text fill="#000000" font-family="sans-serif" font-size="14" lengthAdjust="spacing" textLength="103" x="634" y="424.4795">~ConwayCell()</text></g><!--class FredkinCell--><g id="elem_FredkinCell"><rect codeLine="53" fill="#F1F1F1" height="162.0781" id="FredkinCell" rx="2.5" ry="2.5" style="stroke:#181818;stroke-width:0.5;" width="429" x="1544" y="278"/><ellipse cx="1713.75" cy="294" fill="#ADD1B2" rx="11" ry="11" style="stroke:#181818;stroke-width:1.0;"/><path d="M1716.0938,289.6719 C1715.1563,289.2344 1714.5625,289.0938 1713.6875,289.0938 C1711.0625,289.0938 1709.0625,291.1719 1709.0625,293.8906 L1709.0625,295.0156 C1709.0625,297.5938 1711.1719,299.4844 1714.0625,299.4844 C1715.2813,299.4844 1716.4375,299.1875 1717.1875,298.6406 C1717.7656,298.2344 1718.0938,297.7813 1718.0938,297.3906 C1718.0938,296.9375 1717.7031,296.5469 1717.2344,296.5469 C1717.0156,296.5469 1716.8125,296.625 1716.625,296.8125 C1716.1719,297.2969 1716.1719,297.2969 1715.9844,297.3906 C1715.5625,297.6563 1714.875,297.7813 1714.1094,297.7813 C1712.0625,297.7813 1710.7656,296.6875 1710.7656,294.9844 L1710.7656,293.8906 C1710.7656,292.1094 1712.0156,290.7969 1713.75,290.7969 C1714.3281,290.7969 1714.9375,290.9531 1715.4063,291.2031 C1715.8906,291.4844 1716.0625,291.7031 1716.1563,292.1094 C1716.2188,292.5156 1716.25,292.6406 1716.3906,292.7656 C1716.5313,292.9063 1716.7656,293.0156 1716.9844,293.0156 C1717.25,293.0156 1717.5156,292.875 1717.6875,292.6563 C1717.7969,292.5 1717.8281,292.3125 1717.8281,291.8906 L1717.8281,290.4688 C1717.8281,290.0313 1717.8125,289.9063 1717.7188,289.75 C1717.5625,289.4844 1717.2813,289.3438 1716.9844,289.3438 C1716.6875,289.3438 1716.4844,289.4375 1716.2656,289.75 L1716.0938,289.6719 Z " fill="#000000"/><text fill="#000000" font-family="sans-serif" font-size="14" lengthAdjust="spacing" textLength="81" x="1734.25" y="298.8467">FredkinCell</text><line style="stroke:#181818;stroke-width:0.5;" x1="1545" x2="1972" y1="310" y2="310"/><rect fill="none" height="6" style="stroke:#C82930;stroke-width:1.0;" width="6" x="1552" y="320.6484"/><text fill="#000000" font-family="sans-serif" font-size="14" lengthAdjust="spacing" textLength="57" x="1564" y="326.9951">int _age</text><line style="stroke:#181818;stroke-width:0.5;" x1="1545" x2="1972" y1="334.2969" y2="334.2969"/><polygon fill="#FFFF44" points="1555,342.9453,1559,346.9453,1555,350.9453,1551,346.9453" style="stroke:#B38D22;stroke-width:1.0;"/><text fill="#000000" font-family="sans-serif" font-size="14" lengthAdjust="spacing" textLength="269" x="1564" y="351.292">ostream&amp; write (ostream&amp; out) const</text><ellipse cx="1555" cy="364.2422" fill="#84BE84" rx="3" ry="3" style="stroke:#038048;stroke-width:1.0;"/><text fill="#000000" font-family="sans-serif" font-size="14" lengthAdjust="spacing" textLength="91" x="1564" y="367.5889">FredkinCell()</text><ellipse cx="1555" cy="380.5391" fill="#84BE84" rx="3" ry="3" style="stroke:#038048;stroke-width:1.0;"/><text fill="#000000" font-family="sans-serif" font-size="14" lengthAdjust="spacing" textLength="160" x="1564" y="383.8857">FredkinCell(bool alive)</text><ellipse cx="1555" cy="396.8359" fill="#84BE84" rx="3" ry="3" style="stroke:#038048;stroke-width:1.0;"/><text fill="#000000" font-family="sans-serif" font-size="14" lengthAdjust="spacing" textLength="403" x="1564" y="400.1826">int update(int cardinalNeighbors, int diagonalNeighbors)</text><ellipse cx="1555" cy="413.1328" fill="#84BE84" rx="3" ry="3" style="stroke:#038048;stroke-width:1.0;"/><text fill="#000000" font-family="sans-serif" font-size="14" lengthAdjust="spacing" textLength="145" x="1564" y="416.4795">FredkinCell* clone ()</text><ellipse cx="1555" cy="429.4297" fill="#84BE84" rx="3" ry="3" style="stroke:#038048;stroke-width:1.0;"/><text fill="#000000" font-family="sans-serif" font-size="14" lengthAdjust="spacing" textLength="102" x="1564" y="432.7764">~FredkinCell()</text></g><!--class AbstractCell--><g id="elem_AbstractCell"><rect codeLine="33" fill="#F1F1F1" height="178.375" id="AbstractCell" rx="2.5" ry="2.5" style="stroke:#181818;stroke-width:0.5;" width="534" x="1725.5" y="23.5"/><ellipse cx="1945.25" cy="39.5" fill="#A9DCDF" rx="11" ry="11" style="stroke:#181818;stroke-width:1.0;"/><path d="M1947.3281,41.3125 L1947.7188,42.2969 L1947.3281,42.2969 C1946.875,42.2969 1946.7656,42.3125 1946.6094,42.4219 C1946.3594,42.5781 1946.2031,42.8594 1946.2031,43.1563 C1946.2031,43.4219 1946.3438,43.6719 1946.5625,43.8281 C1946.7031,43.9531 1946.9063,44 1947.3281,44 L1949.6875,44 C1950.0469,44 1950.2656,43.9688 1950.4063,43.875 C1950.6563,43.7344 1950.8125,43.4375 1950.8125,43.1563 C1950.8125,42.875 1950.6719,42.625 1950.4531,42.4688 C1950.2813,42.3281 1950.125,42.2969 1949.6563,42.2969 L1946.2656,34.0938 L1942.5938,34.0938 C1942.1406,34.0938 1942.0156,34.1094 1941.8594,34.2031 C1941.6094,34.375 1941.4531,34.6563 1941.4531,34.9375 C1941.4531,35.2188 1941.5938,35.4688 1941.8125,35.6406 C1941.9844,35.75 1942.1563,35.7813 1942.5938,35.7813 L1943.6719,35.7813 L1941.0313,42.2969 C1940.6094,42.2969 1940.4531,42.3125 1940.2969,42.4219 C1940.0469,42.5781 1939.8906,42.8594 1939.8906,43.1563 C1939.8906,43.7188 1940.2656,44 1941.0156,44 L1943.2813,44 C1943.6406,44 1943.8594,43.9688 1943.9844,43.875 C1944.25,43.7344 1944.3906,43.4375 1944.3906,43.1563 C1944.3906,42.875 1944.2656,42.625 1944.0469,42.4531 C1943.875,42.3281 1943.7344,42.2969 1943.2813,42.2969 L1942.8906,42.2969 L1943.2813,41.3125 L1947.3281,41.3125 Z M1946.625,39.6094 L1943.9531,39.6094 L1945.2969,36.3438 L1946.625,39.6094 Z " fill="#000000"/><text fill="#000000" font-family="sans-serif" font-size="14" font-style="italic" lengthAdjust="spacing" textLength="86" x="1965.75" y="44.3467">AbstractCell</text><line style="stroke:#181818;stroke-width:0.5;" x1="1726.5" x2="2258.5" y1="55.5" y2="55.5"/><polygon fill="none" points="1736.5,64.1484,1740.5,68.1484,1736.5,72.1484,1732.5,68.1484" style="stroke:#B38D22;stroke-width:1.0;"/><text fill="#000000" font-family="sans-serif" font-size="14" lengthAdjust="spacing" textLength="76" x="1745.5" y="72.4951">bool _alive</text><line style="stroke:#181818;stroke-width:0.5;" x1="1726.5" x2="2258.5" y1="79.7969" y2="79.7969"/><text fill="#000000" font-family="sans-serif" font-size="14" lengthAdjust="spacing" textLength="508" x="1745.5" y="96.792">&#171;friend&#187; ostream&amp; operator&lt;&lt;(ostream&amp; lhs, const AbstractCell&amp; rhs)</text><polygon fill="#FFFF44" points="1736.5,104.7422,1740.5,108.7422,1736.5,112.7422,1732.5,108.7422" style="stroke:#B38D22;stroke-width:1.0;"/><text fill="#000000" font-family="sans-serif" font-size="14" lengthAdjust="spacing" textLength="290" x="1745.5" y="113.0889">virtual ostream&amp; write (ostream&amp;) const</text><ellipse cx="1736.5" cy="126.0391" fill="#84BE84" rx="3" ry="3" style="stroke:#038048;stroke-width:1.0;"/><text fill="#000000" font-family="sans-serif" font-size="14" lengthAdjust="spacing" textLength="100" x="1745.5" y="129.3857">AbstractCell()</text><ellipse cx="1736.5" cy="142.3359" fill="#84BE84" rx="3" ry="3" style="stroke:#038048;stroke-width:1.0;"/><text fill="#000000" font-family="sans-serif" font-size="14" lengthAdjust="spacing" textLength="169" x="1745.5" y="145.6826">AbstractCell(bool alive)</text><ellipse cx="1736.5" cy="158.6328" fill="#84BE84" rx="3" ry="3" style="stroke:#038048;stroke-width:1.0;"/><text fill="#000000" font-family="sans-serif" font-size="14" lengthAdjust="spacing" textLength="452" x="1745.5" y="161.9795">virtual int update(int cardinalNeighbors, int diagonalNeighbors)</text><ellipse cx="1736.5" cy="174.9297" fill="#84BE84" rx="3" ry="3" style="stroke:#038048;stroke-width:1.0;"/><text fill="#000000" font-family="sans-serif" font-size="14" lengthAdjust="spacing" textLength="199" x="1745.5" y="178.2764">virtual AbstractCell* clone()</text><ellipse cx="1736.5" cy="191.2266" fill="#84BE84" rx="3" ry="3" style="stroke:#038048;stroke-width:1.0;"/><text fill="#000000" font-family="sans-serif" font-size="14" lengthAdjust="spacing" textLength="160" x="1745.5" y="194.5732">virtual ~AbstractCell()</text></g><!--reverse link Life to Cell--><g id="link_Life_Cell"><path codeLine="1" d="M1197.61,112.5 C1204.72,112.5 1211.83,112.5 1218.94,112.5 " fill="none" id="Life-backto-Cell" style="stroke:#181818;stroke-width:1.0;"/><polygon fill="#181818" points="1184.38,112.5,1190.38,116.5,1196.38,112.5,1190.38,108.5,1184.38,112.5" style="stroke:#181818;stroke-width:1.0;"/><text fill="#000000" font-family="sans-serif" font-size="13" lengthAdjust="spacing" textLength="7" x="1204.0958" y="109.3235">*</text></g><!--reverse link Life to ConwayCell--><g id="link_Life_ConwayCell"><path codeLine="2" d="M696.663,219.656 C717.957,242.001 739.947,265.076 759.72,285.825 " fill="none" id="Life-backto-ConwayCell" style="stroke:#181818;stroke-width:1.0;"/><polygon fill="#181818" points="687.588,210.133,688.8315,217.2361,695.8664,218.8202,694.623,211.7171,687.588,210.133" style="stroke:#181818;stroke-width:1.0;"/><text fill="#000000" font-family="sans-serif" font-size="13" lengthAdjust="spacing" textLength="7" x="745.6049" y="274.9678">*</text></g><!--reverse link Life to FredkinCell--><g id="link_Life_FredkinCell"><path codeLine="3" d="M1067.61,212.754 C1232.78,247.477 1410.16,284.768 1543.83,312.87 " fill="none" id="Life-backto-FredkinCell" style="stroke:#181818;stroke-width:1.0;"/><polygon fill="#181818" points="1054.73,210.045,1059.7799,215.1927,1066.4739,212.5111,1061.424,207.3635,1054.73,210.045" style="stroke:#181818;stroke-width:1.0;"/><text fill="#000000" font-family="sans-serif" font-size="13" lengthAdjust="spacing" textLength="7" x="1528.9895" y="308.0105">*</text></g><!--reverse link Cell to AbstractCell--><g id="link_Cell_AbstractCell"><path codeLine="4" d="M1703.31,112.5 C1710.63,112.5 1717.96,112.5 1725.28,112.5 " fill="none" id="Cell-backto-AbstractCell" style="stroke:#181818;stroke-width:1.0;"/><polygon fill="#181818" points="1690.14,112.5,1696.14,116.5,1702.14,112.5,1696.14,108.5,1690.14,112.5" style="stroke:#181818;stroke-width:1.0;"/><text fill="#000000" font-family="sans-serif" font-size="13" lengthAdjust="spacing" textLength="8" x="1709.2282" y="109.3406">1</text></g><!--reverse link AbstractCell to ConwayCell--><g id="link_AbstractCell_ConwayCell"><path codeLine="5" d="M1745.08,207.454 C1732.44,211.236 1719.86,214.782 1707.5,218 C1484.31,276.108 1222.59,314.047 1043.13,335.583 " fill="none" id="AbstractCell-backto-ConwayCell" style="stroke:#181818;stroke-width:1.0;"/><polygon fill="none" points="1743.11,200.735,1764.28,201.544,1747.23,214.116,1743.11,200.735" style="stroke:#181818;stroke-width:1.0;"/></g><!--reverse link AbstractCell to FredkinCell--><g id="link_AbstractCell_FredkinCell"><path codeLine="6" d="M1894.16,216.257 C1874.42,236.883 1853.95,258.269 1835.08,277.984 " fill="none" id="AbstractCell-backto-FredkinCell" style="stroke:#181818;stroke-width:1.0;"/><polygon fill="none" points="1889.13,211.379,1908.02,201.77,1899.25,221.059,1889.13,211.379" style="stroke:#181818;stroke-width:1.0;"/></g><!--SRC=[hLHDZziW5BpdLpnbfSZEDeVUtKXLfPvMU-eT4M0Jj0Gim4bNxUQt5p1W73kHkcqEZdWVysQ6Pp_n5mRfjzwuntAzX6zCYCNJV4h9CtwxK_1TC_hAPQZmZwkApqlukZDMOs93INc0vlTcKqwO9alq1H7O6F0q6X_uyTQoBVnQ-64RE35YbMxYNyvl0UqrfxD5N5gN9rXJBh50al7zOQSq8ggJrjnfeHplrUqMLmIjQZk1BLSouIXEeMifjYotcQh5F81-yasEYrAQcd18jVZeaZCaLY3P6Kt8cpl54zgcZkHsIWdW1j6k5PouiLNi7lFRWk0dXeWpDvBaahAVDGIOnt0rKFcuxjCaixaDLCVcO11LI3ihQPKnGxZLhYi0aqxhlgJlUqzh4NQcNuQcUT6SIUh6ABTG31zNe5gciIVIL3ac3au5KTBOqBq2VSYEbAku1jH6DlvOrUKXM8Uzd55u5lOn1XAPBzMaOBZvtiXqmS_3_VfmkihdyKr6kuwT3G2Z815AiZXGsGFJANifH3axSLGElQ-ZT_B3_fOeXTw7VlDGy2z6JbpR3ei1-gov5vFETGyPoPV0MUyeEBsWD67m-cDMHvZnglGsNzTSPdWEgvk_WD7WXvlYGNLsRC3GFEpb49gA_qVH0_QrrCk4IHPOVCNpzzfFGNZF_bfm0PPdbx7_Bha0Zvg7D-ioPVF-1m00]--></g></svg>